<?xml version="1.0" standalone="no"?>
<!DOCTYPE svg PUBLIC "-//W3C//DTD SVG 20010904//EN"
 "http://www.w3.org/TR/2001/REC-SVG-20010904/DTD/svg10.dtd">
<svg version="1.0" xmlns="http://www.w3.org/2000/svg"
 width="1119.000000pt" height="1280.000000pt" viewBox="0 0 1119.000000 1280.000000"
 preserveAspectRatio="xMidYMid meet">
<metadata>
Created by potrace 1.15, written by Peter Selinger 2001-2017
</metadata>
<g transform="translate(0.000000,1280.000000) scale(0.100000,-0.100000)"
fill="#000000" stroke="none">
<path d="M5491 12784 c-170 -46 -357 -238 -510 -526 -324 -606 -590 -1733
-742 -3144 -18 -164 -34 -300 -35 -302 -1 -2 -103 41 -226 96 -1121 500 -2079
814 -2814 923 -199 29 -526 36 -659 15 -263 -44 -423 -149 -482 -319 -37 -107
-19 -281 47 -447 240 -608 1179 -1541 2564 -2547 94 -69 171 -129 171 -133 0
-4 -88 -72 -195 -150 -726 -530 -1260 -977 -1720 -1439 -587 -590 -882 -1052
-884 -1386 -1 -121 17 -179 78 -263 110 -149 330 -222 671 -222 333 0 730 68
1251 215 577 163 1301 434 2007 752 104 47 190 83 191 81 1 -1 17 -138 35
-302 170 -1580 473 -2759 853 -3329 80 -121 222 -261 308 -305 132 -66 258
-66 389 0 87 44 229 183 309 305 380 570 683 1749 853 3329 18 164 34 301 35
302 1 2 87 -34 191 -81 1365 -614 2554 -967 3258 -967 341 0 561 73 671 222
61 84 79 142 78 263 -1 136 -34 249 -126 429 -311 605 -1192 1457 -2478 2396
-107 78 -195 146 -195 150 0 4 77 64 171 133 1270 923 2172 1789 2489 2389
102 195 137 309 139 453 1 121 -16 179 -78 263 -78 106 -216 174 -421 208
-133 21 -460 14 -659 -15 -735 -109 -1693 -423 -2814 -923 -123 -55 -225 -98
-226 -96 -1 2 -17 138 -35 302 -170 1580 -473 2760 -853 3329 -72 109 -211
250 -289 295 -103 59 -212 75 -318 46z m249 -126 c213 -104 439 -481 625
-1042 215 -649 394 -1586 495 -2591 11 -110 22 -214 24 -231 l4 -30 -276 -134
c-253 -122 -864 -433 -972 -494 l-44 -25 -71 39 c-170 93 -625 324 -910 462
-170 82 -311 151 -311 151 -3 4 47 469 71 662 196 1574 538 2726 930 3121 151
153 282 187 435 112z m-4590 -2927 c667 -99 1517 -368 2515 -796 229 -98 525
-230 529 -237 2 -2 -3 -71 -10 -154 -21 -255 -43 -606 -54 -874 -6 -140 -13
-291 -16 -335 l-5 -80 -197 -124 c-233 -147 -658 -427 -863 -569 l-145 -100
-195 140 c-1266 915 -2191 1806 -2494 2403 -59 117 -90 207 -106 306 -36 234
103 386 400 434 122 20 462 13 641 -14z m9522 14 c304 -45 446 -196 409 -434
-16 -99 -47 -189 -106 -306 -303 -597 -1228 -1488 -2494 -2403 l-195 -140
-145 100 c-205 142 -630 422 -863 569 l-197 124 -5 80 c-3 44 -10 195 -16 335
-11 268 -33 619 -54 874 -7 83 -12 152 -10 154 4 7 300 139 529 237 1102 472
2021 750 2705 818 99 10 354 5 442 -8z m-6208 -1171 c313 -149 983 -489 1009
-514 5 -4 -63 -47 -150 -95 -253 -141 -671 -382 -895 -518 l-208 -125 0 83 c0
150 37 806 60 1080 6 61 10 122 10 138 0 15 3 27 6 27 4 0 79 -34 168 -76z
m2436 49 c0 -16 4 -77 10 -138 23 -274 60 -930 60 -1080 l0 -83 -207 125
c-225 136 -643 377 -896 518 -87 48 -155 91 -150 95 36 33 1144 589 1176 590
4 0 7 -12 7 -27z m-1030 -776 c289 -160 675 -383 921 -533 l186 -113 6 -218
c9 -280 9 -886 0 -1166 l-6 -217 -196 -119 c-404 -245 -1159 -674 -1186 -674
-27 0 -782 429 -1186 674 l-196 119 -6 217 c-9 280 -9 886 0 1166 l6 218 186
113 c259 157 597 353 920 532 236 131 278 151 295 142 12 -6 127 -69 256 -141z
m-1765 -1447 c0 -401 -1 -730 -3 -730 -15 0 -1004 651 -1086 715 -20 15 -20
15 0 30 96 74 1066 713 1084 715 3 0 5 -328 5 -730z m3193 599 c180 -115 822
-542 876 -584 20 -15 20 -15 0 -30 -82 -64 -1071 -715 -1086 -715 -2 0 -3 329
-3 730 0 402 1 730 3 730 2 0 96 -59 210 -131z m-3843 -1033 c143 -95 349
-228 457 -297 l197 -124 5 -80 c3 -44 10 -195 16 -335 11 -268 33 -619 54
-874 7 -83 12 -152 10 -154 -4 -7 -300 -139 -529 -237 -996 -427 -1857 -700
-2513 -796 -181 -26 -481 -36 -604 -19 -101 13 -201 41 -262 72 -61 31 -131
103 -157 161 -28 64 -31 189 -5 284 157 584 1104 1552 2545 2601 l234 171 146
-101 c80 -55 263 -178 406 -272z m5130 156 c1390 -1017 2327 -1981 2481 -2555
26 -95 23 -220 -5 -284 -26 -58 -96 -130 -157 -161 -213 -108 -625 -109 -1156
-2 -598 121 -1372 380 -2223 745 -229 98 -525 230 -529 237 -2 2 3 71 10 154
21 255 43 606 54 874 6 140 13 291 16 335 l5 80 142 90 c245 154 664 429 867
569 l195 134 65 -46 c36 -25 142 -102 235 -170z m-3685 -1047 c146 -84 336
-192 423 -240 87 -48 155 -91 150 -95 -30 -28 -1094 -564 -1160 -584 -20 -6
-23 -4 -23 21 0 15 -4 78 -10 138 -23 274 -60 930 -60 1080 l0 83 208 -125
c114 -69 326 -194 472 -278z m2060 55 c-12 -262 -34 -623 -50 -810 -5 -63 -10
-128 -10 -143 0 -25 -3 -27 -22 -21 -67 20 -1131 556 -1161 584 -5 4 97 66
225 138 286 159 604 343 843 488 l180 109 3 -50 c2 -27 -1 -160 -8 -295z
m-975 -647 c249 -129 821 -411 879 -433 21 -8 24 -14 20 -42 -2 -18 -13 -123
-24 -233 -197 -1957 -643 -3398 -1124 -3635 -146 -72 -280 -37 -426 109 -393
394 -733 1522 -929 3086 -27 208 -66 572 -74 673 -2 32 -2 32 128 93 169 78
862 426 1030 517 l130 70 60 -33 c33 -18 182 -96 330 -172z"/>
<path d="M5545 7054 c-289 -36 -495 -202 -577 -464 -33 -107 -33 -273 0 -380
71 -227 262 -403 487 -450 336 -70 665 123 767 450 33 107 33 273 0 380 -58
185 -185 328 -364 409 -87 40 -232 65 -313 55z m239 -133 c183 -64 330 -245
358 -440 27 -180 -28 -339 -161 -472 -114 -114 -225 -160 -386 -160 -161 0
-272 46 -386 160 -133 133 -188 292 -161 472 28 196 175 376 359 440 113 40
263 40 377 0z"/>
</g>
</svg>
